<?xml version="1.0" encoding="utf-8"?>
<!-- Generator: Adobe Illustrator 16.0.0, SVG Export Plug-In . SVG Version: 6.00 Build 0)  -->
<!DOCTYPE svg PUBLIC "-//W3C//DTD SVG 1.1//EN" "http://www.w3.org/Graphics/SVG/1.1/DTD/svg11.dtd">
<svg version="1.1" id="Layer_1" xmlns="http://www.w3.org/2000/svg" xmlns:xlink="http://www.w3.org/1999/xlink" x="0px" y="0px"
	 width="1080px" height="1080px" viewBox="0 0 1080 1080" enable-background="new 0 0 1080 1080" xml:space="preserve">
<title>university, school, education, college, building,</title>
<g>
	<path d="M364.232,954h553.5V603h11.34c5.163,0.025,9.968-2.633,12.69-7.02l4.05-7.695l-29.025-57.915
		c-2.518-5.136-7.781-8.347-13.5-8.235H715.232v-46.979l31.86,17.955l0,0c4.56,2.601,10.154,2.601,14.715,0l7.29-5.13v-58.725
		c0.178-5.554-2.732-10.75-7.561-13.5l-208.305-116.64v-27c9.35,4.477,19.604,6.74,29.97,6.615
		c18.853-1.047,37.409-5.15,54.945-12.15c11.697-4.756,24.019-7.802,36.585-9.045h13.5V157.5l-9.18-3.105
		c-22.961-7.511-48.141-3.381-67.5,11.07c-17.82,10.125-29.971,17.28-58.32-5.13V157.5c0-7.456-6.044-13.5-13.5-13.5
		c-7.456,0-13.5,6.044-13.5,13.5v141.615L317.657,416.43c-4.775,2.786-7.63,7.975-7.425,13.5v50.22v8.91l6.615,3.915
		c4.602,2.625,10.248,2.625,14.85,0l32.535-17.82V522h-189c-5.718-0.111-10.982,3.1-13.5,8.235l-25.65,51.3
		c-2.526,4.483-2.526,9.961,0,14.445l5.13,7.02h20.52v351H364.232z M364.232,927h-175.5V603h175.5V927z M472.232,927V778.5h54V927
		H472.232z M553.232,927V778.5h54V927H553.232z M890.732,927h-175.5V603h175.5V927z M895.862,549l13.5,27h-194.13v-27H895.862z
		 M625.862,188.28c10.133-7.699,22.66-11.572,35.37-10.936v54c-10.922,2.323-21.66,5.437-32.13,9.315
		c-34.561,11.88-57.51,17.685-76.14-2.16v-45.63C586.308,211.5,607.907,198.675,625.862,188.28z M337.232,459.36v-22.95
		l202.5-113.94l202.5,113.94v23.085l-27-15.12l0,0l-168.21-95.985l-7.965-3.78l-174.825,99.495l0,0L337.232,459.36z M539.732,376.47
		l148.5,83.565V927h-54V778.5h13.5c7.456,0,13.5-6.044,13.5-13.5s-6.044-13.5-13.5-13.5h-216c-7.456,0-13.5,6.044-13.5,13.5
		s6.044,13.5,13.5,13.5h13.5V927h-54V460.035L539.732,376.47z M182.792,549h180.63v27h-194.13L182.792,549z"/>
	<path d="M539.732,549c37.28,0,67.5-30.221,67.5-67.5s-30.221-67.5-67.5-67.5c-37.279,0-67.5,30.221-67.5,67.5
		S502.453,549,539.732,549z M539.732,441c22.368,0,40.5,18.132,40.5,40.5S562.1,522,539.732,522c-22.367,0-40.5-18.132-40.5-40.5
		S517.365,441,539.732,441z"/>
	<rect x="418.232" y="576" width="54" height="27"/>
	<rect x="512.732" y="576" width="54" height="27"/>
	<rect x="607.232" y="576" width="54" height="27"/>
	<rect x="418.232" y="630" width="54" height="27"/>
	<rect x="512.732" y="630" width="54" height="27"/>
	<rect x="607.232" y="630" width="54" height="27"/>
	<rect x="418.232" y="684" width="54" height="27"/>
	<rect x="512.732" y="684" width="54" height="27"/>
	<rect x="607.232" y="684" width="54" height="27"/>
	<rect x="755.732" y="630" width="27" height="54"/>
	<rect x="823.232" y="630" width="27" height="54"/>
	<rect x="755.732" y="711" width="27" height="54"/>
	<rect x="823.232" y="711" width="27" height="54"/>
	<rect x="755.732" y="792" width="27" height="54"/>
	<rect x="823.232" y="792" width="27" height="54"/>
	<rect x="229.232" y="630" width="27" height="54"/>
	<rect x="296.732" y="630" width="27" height="54"/>
	<rect x="229.232" y="711" width="27" height="54"/>
	<rect x="296.732" y="711" width="27" height="54"/>
	<rect x="229.232" y="792" width="27" height="54"/>
	<rect x="296.732" y="792" width="27" height="54"/>
</g>
</svg>
