<?xml version="1.0" encoding="utf-8"?>
<!-- Generator: Adobe Illustrator 16.0.0, SVG Export Plug-In . SVG Version: 6.00 Build 0)  -->
<!DOCTYPE svg PUBLIC "-//W3C//DTD SVG 1.1//EN" "http://www.w3.org/Graphics/SVG/1.1/DTD/svg11.dtd">
<svg version="1.1" id="Layer_1" xmlns="http://www.w3.org/2000/svg" xmlns:xlink="http://www.w3.org/1999/xlink" x="0px" y="0px"
	 width="1080px" height="1080px" viewBox="0 0 1080 1080" enable-background="new 0 0 1080 1080" xml:space="preserve">
<title>17</title>
<g>
	<path d="M804.688,550.656c-16.416-83.809-77.76-138.241-156.384-138.241c-38.42,1.049-75.8,12.712-108,33.696
		c-32.337-21.484-70.057-33.458-108.864-34.56c-77.76,0-140.832,56.16-156.384,139.104c-22.464,114.048,45.792,265.248,246.24,345.6
		c12.18,4.993,25.836,4.993,38.016,0c199.584-82.08,266.977-232.416,245.376-346.464V550.656z M540.305,830.592
		C382.192,764.064,326.896,650.017,343.313,564.48c9.504-51.841,44.064-83.809,88.128-83.809c26.784,0,57.889,12.096,88.128,34.561
		c12.288,9.216,29.185,9.216,41.473,0c30.239-22.464,60.479-33.696,87.264-33.696c44.064,0,78.624,31.968,88.128,82.081
		C753.713,649.152,698.417,763.2,540.305,830.592z"/>
	<path d="M574.864,303.552V214.56c0-19.087-15.473-34.56-34.56-34.56s-34.561,15.473-34.561,34.56v88.992
		c0,19.087,15.474,34.56,34.561,34.56S574.864,322.639,574.864,303.552z"/>
	<path d="M811.601,230.112c-17.459-7.713-37.865,0.188-45.577,17.648c-0.073,0.165-0.145,0.33-0.215,0.496l-38.016,88.992
		c-7.635,17.655,0.488,38.157,18.144,45.792s38.157-0.488,45.792-18.144l38.016-88.992c7.713-17.459-0.188-37.865-17.647-45.578
		C811.932,230.253,811.767,230.182,811.601,230.112z"/>
	<path d="M288.881,364.896c7.396,17.656,27.704,25.972,45.359,18.576c17.656-7.396,25.973-27.705,18.576-45.36l-38.88-89.856
		c-7.396-17.655-27.705-25.972-45.36-18.576S242.604,257.384,250,275.04L288.881,364.896z"/>
</g>
</svg>
