<?xml version="1.0" encoding="utf-8"?>
<!-- Generator: Adobe Illustrator 16.0.0, SVG Export Plug-In . SVG Version: 6.00 Build 0)  -->
<!DOCTYPE svg PUBLIC "-//W3C//DTD SVG 1.1//EN" "http://www.w3.org/Graphics/SVG/1.1/DTD/svg11.dtd">
<svg version="1.1" id="Layer_1" xmlns="http://www.w3.org/2000/svg" xmlns:xlink="http://www.w3.org/1999/xlink" x="0px" y="0px"
	 width="1080px" height="1080px" viewBox="0 0 1080 1080" enable-background="new 0 0 1080 1080" xml:space="preserve">
<g>
	<g>
		<path d="M807.942,539.352c-1.729,0-3.456-0.863-4.32-0.863c-7.776,0-31.104,0-165.023,154.655l-114.048-1.728
			c-4.32-3.456-8.641-8.64-12.097-15.552l112.321,1.728c5.184,0,10.368-2.592,13.824-6.912l19.008-23.328
			c6.912-8.64,8.64-22.464,3.456-33.695c-3.456-7.776-13.824-21.601-40.608-22.465c-59.616-2.592-241.056-12.96-242.785-12.96
			c-4.319,0-9.504,1.729-12.96,4.32l-133.92,125.28c-3.456,3.456-5.184,7.775-5.184,12.096s1.728,8.64,4.32,12.096l120.96,128.736
			c3.455,3.456,7.775,5.185,12.96,5.185c4.319,0,8.64-1.729,12.096-4.32l69.12-63.937l222.913,6.048
			c5.184,0,9.504-1.728,12.96-5.184c110.592-116.64,168.479-182.304,171.936-196.128c3.456-12.096,0.864-25.056-6.048-36.288
			C837.318,552.312,823.494,542.808,807.942,539.352z M660.198,770.04l-222.048-6.048c-4.32,0-8.641,1.728-12.096,4.319
			l-61.345,57.024l-97.632-103.68l115.776-108c34.56,1.728,183.168,10.367,235.873,12.096c6.048,0,8.64,1.728,10.367,2.592
			l-12.096,14.688l-130.464-1.729c-5.184,0-10.368,2.592-13.824,6.912s-4.319,9.504-2.592,15.552
			c1.729,5.185,13.824,47.521,42.336,61.345c2.592,0.863,4.32,1.728,6.912,1.728l127.008,1.728c5.185,0,10.368-1.728,12.96-6.048
			c55.296-63.936,124.416-136.512,144.288-147.744c5.185,1.729,9.504,5.185,12.097,10.368c1.728,3.456,2.592,6.048,2.592,8.641
			C809.67,608.472,732.774,693.144,660.198,770.04z"/>
		<path d="M525.414,220.536C514.182,234.36,414.822,361.368,414.822,424.44c0,68.256,56.16,124.416,124.416,124.416
			c68.256,0,124.417-55.296,124.417-124.416c0-63.072-99.36-190.08-110.592-203.904C546.15,211.896,532.326,211.896,525.414,220.536
			z M539.238,514.296c-49.248,0-89.856-40.608-89.856-89.856c0-34.56,50.112-113.184,89.856-165.024
			c38.88,51.84,89.856,130.464,89.856,165.024C629.094,473.688,588.486,514.296,539.238,514.296z"/>
		<path d="M534.054,353.592v9.504c-11.232,2.592-17.28,9.504-17.28,18.144c0,10.368,7.776,15.552,19.008,19.008
			c7.777,2.592,11.233,5.184,11.233,8.64c0,4.32-4.32,6.048-10.369,6.048c-6.912,0-12.96-2.592-17.28-4.32l-3.456,12.096
			c4.32,2.592,10.368,4.32,17.28,4.32v9.504h10.369v-10.368c12.096-1.728,18.144-10.368,18.144-19.008
			c0-9.504-5.184-14.688-17.28-19.008c-8.64-3.456-12.096-5.184-12.096-8.64c0-2.592,2.592-6.048,8.64-6.048
			c7.776,0,12.097,2.592,14.688,3.456l2.592-12.096c-3.456-1.728-7.775-3.456-14.688-3.456v-9.504h-9.504V353.592z"/>
	</g>
</g>
</svg>
